<svg width="16" height="11" viewBox="0 0 16 11" fill="none" xmlns="http://www.w3.org/2000/svg">
<path d="M7.99996 0.666626C4.66663 0.666626 1.81996 2.73996 0.666626 5.66663C1.81996 8.59329 4.66663 10.6666 7.99996 10.6666C11.3333 10.6666 14.18 8.59329 15.3333 5.66663C14.18 2.73996 11.3333 0.666626 7.99996 0.666626ZM7.99996 8.99996C6.15996 8.99996 4.66663 7.50663 4.66663 5.66663C4.66663 3.82663 6.15996 2.33329 7.99996 2.33329C9.83996 2.33329 11.3333 3.82663 11.3333 5.66663C11.3333 7.50663 9.83996 8.99996 7.99996 8.99996ZM7.99996 3.66663C6.89329 3.66663 5.99996 4.55996 5.99996 5.66663C5.99996 6.77329 6.89329 7.66663 7.99996 7.66663C9.10663 7.66663 9.99996 6.77329 9.99996 5.66663C9.99996 4.55996 9.10663 3.66663 7.99996 3.66663Z" fill="#6D747A"/>
</svg>
