<svg width="12" height="15" viewBox="0 0 12 15" fill="none" xmlns="http://www.w3.org/2000/svg">
<path d="M9.81954 5.33335H9.1629V4.00002C9.1629 2.16002 7.69202 0.666687 5.87969 0.666687C4.06736 0.666687 2.59648 2.16002 2.59648 4.00002V5.33335H1.93984C1.21753 5.33335 0.626556 5.93335 0.626556 6.66669V13.3334C0.626556 14.0667 1.21753 14.6667 1.93984 14.6667H9.81954C10.5418 14.6667 11.1328 14.0667 11.1328 13.3334V6.66669C11.1328 5.93335 10.5418 5.33335 9.81954 5.33335ZM5.87969 11.3334C5.15738 11.3334 4.56641 10.7334 4.56641 10C4.56641 9.26669 5.15738 8.66669 5.87969 8.66669C6.60199 8.66669 7.19297 9.26669 7.19297 10C7.19297 10.7334 6.60199 11.3334 5.87969 11.3334ZM3.90976 5.33335V4.00002C3.90976 2.89335 4.78966 2.00002 5.87969 2.00002C6.96971 2.00002 7.84961 2.89335 7.84961 4.00002V5.33335H3.90976Z" fill="#939CA3"/>
</svg>
