<svg width="38" height="32" viewBox="0 0 38 32" fill="none" xmlns="http://www.w3.org/2000/svg">
<path d="M27.6833 11.9997L20.3833 1.06633C20.0666 0.599666 19.5333 0.366333 19 0.366333C18.4666 0.366333 17.9333 0.599666 17.6166 1.083L10.3166 11.9997H2.33329C1.41663 11.9997 0.666626 12.7497 0.666626 13.6663C0.666626 13.8163 0.683293 13.9663 0.733293 14.1163L4.96663 29.5663C5.34996 30.9663 6.63329 31.9997 8.16663 31.9997H29.8333C31.3666 31.9997 32.65 30.9663 33.05 29.5663L37.2833 14.1163L37.3333 13.6663C37.3333 12.7497 36.5833 11.9997 35.6666 11.9997H27.6833ZM14 11.9997L19 4.66633L24 11.9997H14ZM19 25.333C17.1666 25.333 15.6666 23.833 15.6666 21.9997C15.6666 20.1663 17.1666 18.6663 19 18.6663C20.8333 18.6663 22.3333 20.1663 22.3333 21.9997C22.3333 23.833 20.8333 25.333 19 25.333Z" fill="#C0504D"/>
</svg>
